<svg id="Слой_1" data-name="Слой 1" xmlns="http://www.w3.org/2000/svg" viewBox="0 0 806.74 1009.93"><path d="M445.75,13.21c-99.05,5.26-177.48,18-265.63,43.3C157.35,63,107,79.38,103.05,81.42c-1.65.88-1.75,11.68-1.75,206,.1,112.78.49,213.1,1,223,3.31,67.73,17.23,125.91,44.67,186.82,34.25,75.9,93.89,150.53,170.86,213.59,52.93,43.39,119.49,83.68,178.36,108l9,3.7,8-3.11c11.87-4.77,53.32-25.21,68.59-33.77,63.06-35.51,115.8-75.8,166.59-127.47C796.92,809,829,764.78,855.4,711.36,880.89,659.7,895.88,610.07,903,553.63c4.48-34.73,4.38-28.6,4.67-254.15L908,83.17l-3.31-1.36C888.58,75.1,827.38,56.12,798,48.73,720.25,29.27,662.55,20,583.92,14.57,558.24,12.82,470.37,12,445.75,13.21ZM556.68,40.46A1208.14,1208.14,0,0,1,745.45,64.88c34.93,7.3,89.81,22.28,120.17,32.69l13.62,4.67V313.88c0,234.6.39,217.38-6.42,257.85C856,672,808.79,759,726.47,841.75c-56.33,56.63-117.83,101-187.3,135.15-11,5.45-23.07,11.1-26.86,12.65l-6.91,2.73-11.09-4.67c-6.13-2.53-21.12-9.73-33.47-16C383.29,932.53,310.41,875.9,254,811.1c-64.8-74.44-103.14-152.38-117.64-238.69-6.62-39.5-6.13-22.18-6.52-257.27l-.39-213.28L147.23,96C250,62.25,342,45.61,456,40.17,471.73,39.39,539.94,39.58,556.68,40.46Z" transform="translate(-101.3 -12.61)"/><path d="M605.62,106a52.27,52.27,0,0,0-25.68,14.11c-9,8.95-11.1,14.4-11,28.8,0,9.54.29,11.29,2.53,16.35,3.11,6.61,10.9,14.69,17.81,18.29a91.11,91.11,0,0,0,12.65,5.06c4.28,1.36,12.65,4,18.58,5.84,17.42,5.45,22.77,10,22.77,19.46,0,6.23-2.14,9.73-8.17,12.94-4.09,2.24-6.52,2.82-13.24,3.11-13.91.69-22.57-4-25.39-13.42-1.07-3.51-1.46-3.9-4.48-3.9-4.57,0-27,2-27.44,2.53-.78.69,1.85,11,3.89,15.48,5,10.5,16.93,19.65,30.56,23.25,9,2.43,24.71,3,34.83,1.27,24.91-4.38,41.55-21.8,41.55-43.5-.1-11.19-3.7-20.34-11.19-27.73-6.62-6.71-13.53-10.12-35.42-17.42-26.17-8.85-28.31-10.31-28.31-19.17,0-4.76,1.85-8.56,5.83-12s9.73-4.77,18.1-4.29c8.86.39,14,3.51,17.23,10.32,1.16,2.53,2.14,4.57,2.14,4.67s5.45-.49,12.16-1.17,13.43-1.26,15-1.26c2.63-.1,2.73-.3,2.24-3.6-1-5.75-6.13-15.57-10.8-20.63s-12.84-9.93-20.72-12.46C635,104.87,613.41,104.29,605.62,106Z" transform="translate(-101.3 -12.61)"/><path d="M224.88,181.06v72.69l33.37-.39c30-.39,34.06-.68,40.67-2.53,12.75-3.51,19.95-7.59,28.71-16.25,12.16-12.07,17-23.45,18.87-44.37,1-11.29,0-25.79-2.43-35.32-5.35-21.22-21.4-37.37-43.78-44-5-1.45-11.1-1.75-40.58-2l-34.83-.39Zm69.86-41.94A32.43,32.43,0,0,1,310,154c4.28,9.05,6,23.16,4.47,36.29-1.26,11.19-4.28,18.78-9.63,24.52-8.08,8.66-18.59,11.78-37.66,11.29l-10.7-.29-.29-45-.2-45.15,16.25.39C287.93,136.3,288.9,136.4,294.74,139.12Z" transform="translate(-101.3 -12.61)"/><path d="M365.48,148.17c5.55,21.9,13.82,54.39,18.39,72.3s8.37,32.69,8.37,32.89,8.85.09,19.75,0l19.66-.3,10.41-39.89c5.74-22,11.19-43.49,12.16-48s2-8,2.43-8,.78.59.78,1.17,5.35,22.38,11.77,48.16l11.88,47h41.06l18-72.49,18-72.49H523.89l-1.17,6.52c-1.65,9.15-9,42.13-15.28,68.89-2.91,12.26-5.74,24.52-6.32,27.05s-1.27,4.57-1.46,4.38-3.11-11.29-6.52-24.62-9.73-37.36-13.91-53.22l-7.69-29H457.33c-11.67,0-14.4.29-14.88,1.46-.3.78-6.72,24.52-14.21,52.74s-14,52-14.3,52.83c-.59,1.56-2.73-7.78-15.86-69.37l-8.18-37.66H355.46Z" transform="translate(-101.3 -12.61)"/><path d="M695.82,181.06v72.49h29c31.62,0,38.14-.68,50.11-4.57,20.05-6.62,33.77-21.7,39.8-43.79,3-11.09,3-38.14,0-49.23-5.55-20.34-17.71-34.45-36.1-41.94-11.87-4.87-17.81-5.45-51.67-5.45H695.82Zm65.49-43.3c16.93,5.25,25,21.6,23.74,47.68-.87,17.42-4.77,26.76-14,33.47-7.4,5.35-12.46,6.62-29.19,7.2L727,226.5V135.81h14C752.26,135.81,756.25,136.2,761.31,137.76Z" transform="translate(-101.3 -12.61)"/><path d="M170.39,313.2c0,23.55,5.74,40.38,20,59.16,13.53,17.71,45.15,41.35,95.36,71.42,30.06,18,36.58,22.09,36.19,22.48-.58.58-24.81-5.94-35.8-9.64-19.95-6.81-63.35-25.59-81.74-35.51C194,415.46,177.49,405.34,171,400.58c-8.08-5.84-7.69-5.94-6.91.48,2.82,24.62,10.61,40.29,27.64,56.05,10.11,9.34,22.57,17.32,42.42,27.05,25.78,12.55,49.33,20.73,79.2,27.44,13.53,3.11,13.82,3.21,9.73,4-2.33.39-10.21.49-17.41.19-41.84-1.84-84.07-9.14-119.49-20.82l-13.92-4.57.69,3c2.72,12.46,10.89,26.57,21.4,36.59,25.3,24.23,61.5,33.08,129.81,31.72l27.73-.49-4.38,1.95c-27,12-77.55,20-121.44,19.17-9.73-.2-17.71-.2-17.71.1.1,2.33,7.5,12.55,13.53,18.58,17.22,17.22,42.33,24.52,75.9,22.19,23.15-1.56,44.27-7.4,79.88-22.09,1.85-.78-9.53,9.92-18.19,17-24.82,20.43-56.93,35.22-76.48,35.32-4.48,0-4.58.1-3.51,2,3.6,6.91,15.86,15,27.15,18,8.08,2.14,25.1,2.24,34.64.1,23.55-5.25,48-17.81,77.36-39.7,5.64-4.18,10.8-7.69,11.38-7.69,1.95,0,8.76,25.79,9.63,36.1.88,10-1.07,13.14-19.07,31C407.32,706.6,382.12,728.49,364.7,742l-5.64,4.38,3.69.78c5.75,1.27,17.81,4.77,17.81,5.26,0,.29-14.5,26.27-28.9,51.66-3,5.36-6.42,7.5-11.58,7.3-4.67-.19-9.14-2.24-13.91-6.42-9.63-8.27-22.28-8.66-30.65-.88-4.28,4.09-7.4,11.49-7.4,17.91s1.07,9.63,4.67,14.4l2.63,3.4.58-5.64c.69-6.42,2.83-9.92,7.69-12.75,2.82-1.65,3.8-1.75,8.27-.87,5.84,1.26,15.08,5.06,15.08,6.13,0,.39-2.23,2.43-4.86,4.47-12,9.15-11.39,22.48,1.46,34.35,5,4.38,12,7.88,16.15,7.88,1.56,0,1.46-.39-.58-2.53-3-3.21-6.33-12.06-6.33-16.73s1.75-7.88,5.84-10.71c7.49-5.15,24.52-.68,34.93,9.05,7.59,7.11,8.66,13.72,3.41,21.41-1.36,2-2.34,3.79-2.14,3.89s3.11-.58,6.52-1.65c13.91-4.28,21.11-17.81,15.76-29.68-2.24-4.86-3.79-5.94-15.67-11-5.06-2.15-10.41-5.06-11.87-6.52-2.92-2.73-4.28-7.59-3.21-11,.78-2.33,9.64-15.67,15-22.38,4.28-5.35,20.72-24.33,21.21-24.33a65.84,65.84,0,0,1,3.5,6.43l3.21,6.42L411.5,779c4.38-10.61,12.85-21.41,29.39-38,8.95-8.85,18.49-18.68,21.21-21.8l5.06-5.83v6.91c0,8.27-3,26.46-6.32,38.92-6.23,22.77-23.36,57.7-36.88,74.92l-5.55,7,1.46,3.5c2.43,5.64,9.63,16.25,15.38,22.38,3,3.21,5.64,5.64,5.83,5.35s4.38-6.81,9.15-14.6a474.31,474.31,0,0,0,26.08-46.6c4.18-8.18,7.68-14.79,7.78-14.6.78.88-2.63,30.17-5.25,45.64-5.84,35.12-5.06,41.93,7,57.11,5.35,6.81,16.06,16.84,17.91,16.84.58,0,1.75-1,2.62-2.24s4.58-5.84,8.37-10.41c8.27-9.83,13.43-19.56,14.79-28.22,1.17-7,.2-16.25-4.47-40.77-3.51-18.78-6-44.08-3.6-37.07,1.36,4.18,19.55,39.11,24.91,48.06,7,11.58,16.54,23.94,18.48,23.94,2.34,0,16.93-19.17,18.49-24.13.49-1.26-1-4.48-4.28-10-6.23-10.22-20.53-38.53-27.25-53.91C540.72,756.12,536,739,534.59,720.51l-.58-9,3.7,4.38C539.85,718.17,551.23,730,563,742c20,20.34,28.81,31,30.27,36.69.87,3.21,2,2.72,2.72-1a24.37,24.37,0,0,1,2.82-6.81l2.24-3.69,12.65,15.86c23.74,29.77,27.93,35.61,27.93,38.72,0,4.19-3.51,7.49-12,11.48-18.59,8.57-25.11,18.78-19.56,30.85,3.31,7.39,13.72,14.11,21.8,14.11,1.84,0,1.84-.1.38-1.75-2.53-2.82-4.57-8.57-4.57-13.14,0-7.49,7-14.89,18.2-19.26,6.81-2.63,18.87-3.12,23.06-.88,6.71,3.6,7.68,13.91,2.24,24.52-3.31,6.42-3.31,6.62-1.37,6.62,6.43-.1,18.39-9.44,22-17,2.63-5.65,2.63-12.94.1-18-1.17-2.34-4.18-5.35-7.78-7.88-3.21-2.24-5.84-4.38-5.84-4.87,0-1.46,11.29-5.06,17.32-5.55,5.45-.39,6.42-.19,8.56,1.85,3.6,3.41,4.57,5.55,5.16,12.07l.58,5.84,3.12-3.21c5.64-5.84,7.59-16.16,4.67-24.62-3.12-8.66-10.8-13.82-20.63-13.92-5.26,0-7.2.59-15.08,4.58-5.26,2.72-10.41,4.57-12.26,4.57-7.59,0-13.33-5.16-29.49-26.76-15.57-20.72-19.55-26.66-18.78-27.83,1.27-2,9.64-5.06,15.48-5.64l5.83-.58-10.51-8.08c-25.78-19.85-60.42-50.5-66.36-58.58-7.49-10.21-8.85-18.87-5.25-32.59,2.72-10.61,8.27-22.48,9.83-21.22.68.49,4.38,3.41,8.17,6.43,11.68,9.34,30.55,21.4,43.2,27.63,41.84,20.63,77.55,20.82,98.08.49l5.55-5.55-3.89-.29a124.24,124.24,0,0,1-27.05-5.74c-16.64-5.94-38.24-18.68-53.71-31.63-10.12-8.56-18.49-17-15.57-15.86,31,12.17,42.71,15.86,62.18,19.46,32.4,5.94,56.82,3.6,79.4-7.49,8.66-4.18,11.38-6.13,18-12.84,4.28-4.38,9-10.22,10.5-13l2.73-5.06H775.42c-32.21,0-58.87-2.82-81.93-8.76-11.68-2.92-31.24-10.21-32.31-11.87-.48-.78-.09-.87,1.07-.39,3.51,1.27,65.59,1.85,77.36.68,43.11-4.28,74-21.11,88-47.77,3-5.65,8.76-22.38,7.79-22.38-.2,0-5,1.75-10.71,3.89-22.86,8.56-53.32,15.86-79.2,19-14.69,1.76-56.63,3.12-60.91,2-2.63-.68-2.34-.88,3-2,30.17-6.91,46.22-11.58,66.66-19.56,14.49-5.74,35.22-16.25,45.92-23.35,30.75-20.54,42-38,45.35-70.65.77-6.9.29-9.05-1.37-6.42-1.26,2.14-20.33,15.67-30.65,21.8-29.09,17.32-74.24,36.88-104.5,45.24-8,2.24-15.86,4.38-17.52,4.87-2.72.87-2.82.87-1-.59,1.07-.77,14.69-9,30.17-18.29,49.52-29.48,72.58-45.54,89.13-61.88,14.49-14.5,23.25-29.39,26.75-45.64,1.37-6.42,2-35.42.78-38.43-.39-1.17-2.92.68-10.41,7.39-32.79,29.48-67.24,53.32-153,105.87-48.94,30-67,42.42-78.13,53.81L590.64,475l1.65,9.25c1.17,6.71,1.46,12.36,1.07,21.31-.78,18.19-4.38,27.83-13.72,37l-4.47,4.28V530.38c0-18.39-1.17-27.05-6.33-48.26-6.32-26.28-6.52-28.22-7.29-70.94s-.59-41.84-6.72-53.12L552.11,353l3.5-.69c5-1,12.55-4.76,16.93-8.46l3.7-3.21-22.67-7.59c-23.16-7.79-28.32-8.95-59.07-13.14-14.79-2-21.5-1.55-27.92,2.24-3.7,2.24-10.8,9.05-12.65,12.36-.78,1.46-1.36,1.46-6.23.19-6.71-1.85-16.83-1.26-22.67,1.36-14.5,6.43-22,22.87-17.52,38.54.39,1.46,1.27,1.07,5.55-3.12,6.91-6.81,12.75-9.34,22-9.34,6.13,0,8.17.49,12.65,2.73,5.94,3.11,14.69,9.63,18.49,13.72,2.14,2.33,2.24,2.62.48,2-9.92-2.92-27.24-3.31-35.51-.68l-5.35,1.65,9.05,2.14c11.58,2.73,23.25,8.66,28.41,14.5,5.35,6.13,6.62,12.16,4.47,21.89-1.94,8.66-5.35,16-16.15,34.74-9.14,16-14.59,27.93-18,39.8-3.11,10.7-4.86,27.83-3.7,36.39.49,3.7.68,6.62.3,6.62-1.66,0-9-6.13-12.07-10.22-5.16-6.91-7.59-14.11-8.08-24.33-.39-7.59,0-10.5,3-22.18,1.85-7.4,3.21-14,2.92-14.79-.68-1.66-9.83-8.76-18.49-14.4-3.79-2.43-22.48-13.33-41.35-24.33s-41.84-24.42-51-30c-23.55-14.4-71.13-46.22-90-60.23-15-11.19-37.27-29.19-38.44-31.13a16.78,16.78,0,0,0-3.4-2.92l-2.92-2.05ZM501.8,342.68a11.53,11.53,0,0,0-.58,2.34c0,1.75-6.42,8.07-9.44,9.34a17.33,17.33,0,0,1-13.23,0c-3.8-1.66-9-6.91-10.32-10.61l-1.07-2.63h17.61C500.44,341.12,502.29,341.32,501.8,342.68Z" transform="translate(-101.3 -12.61)"/></svg>